<mxfile host="65bd71144e">
    <diagram id="pRV_BDsIOo0VS5SzgELA" name="Página-1">
        <mxGraphModel dx="10719" dy="590" grid="1" gridSize="10" guides="1" tooltips="1" connect="1" arrows="1" fold="1" page="1" pageScale="1" pageWidth="10000" pageHeight="10000" background="none" math="0" shadow="0">
            <root>
                <mxCell id="0"/>
                <mxCell id="1" parent="0"/>
                <mxCell id="167" value="" style="whiteSpace=wrap;html=1;aspect=fixed;labelBackgroundColor=#ffffff;fontSize=16;fillColor=#f5f5f5;fontColor=#333333;strokeColor=#666666;rounded=0;" parent="1" vertex="1">
                    <mxGeometry x="-20" y="205" width="140" height="140" as="geometry"/>
                </mxCell>
                <mxCell id="168" value="" style="rounded=0;whiteSpace=wrap;html=1;labelBackgroundColor=#ffffff;fontSize=16;fillColor=#f5f5f5;strokeColor=#666666;gradientColor=#b3b3b3;" parent="1" vertex="1">
                    <mxGeometry x="-20" y="205" width="140" height="30" as="geometry"/>
                </mxCell>
                <mxCell id="171" value="Time" style="text;strokeColor=none;align=center;fillColor=none;html=1;verticalAlign=middle;whiteSpace=wrap;rounded=0;labelBackgroundColor=#ffffff;fontSize=16;fontColor=#0e0101;" parent="1" vertex="1">
                    <mxGeometry x="20" y="205" width="60" height="30" as="geometry"/>
                </mxCell>
                <mxCell id="173" value="+ nomeTime" style="text;strokeColor=none;align=center;fillColor=none;html=1;verticalAlign=middle;whiteSpace=wrap;rounded=0;labelBackgroundColor=#ffffff;fontSize=16;fontColor=#0e0101;" parent="1" vertex="1">
                    <mxGeometry x="-20" y="235" width="100" height="30" as="geometry"/>
                </mxCell>
                <mxCell id="174" value="+ tecnico" style="text;strokeColor=none;align=center;fillColor=none;html=1;verticalAlign=middle;whiteSpace=wrap;rounded=0;labelBackgroundColor=#ffffff;fontSize=16;fontColor=#0e0101;" parent="1" vertex="1">
                    <mxGeometry x="-20" y="265" width="80" height="30" as="geometry"/>
                </mxCell>
                <mxCell id="175" value="" style="whiteSpace=wrap;html=1;aspect=fixed;labelBackgroundColor=#ffffff;fontSize=16;fillColor=#f5f5f5;fontColor=#333333;strokeColor=#666666;rounded=0;" parent="1" vertex="1">
                    <mxGeometry x="260" y="170" width="180" height="180" as="geometry"/>
                </mxCell>
                <mxCell id="176" value="" style="rounded=0;whiteSpace=wrap;html=1;labelBackgroundColor=#ffffff;fontSize=16;fillColor=#f5f5f5;strokeColor=#666666;gradientColor=#b3b3b3;" parent="1" vertex="1">
                    <mxGeometry x="260" y="170" width="180" height="30" as="geometry"/>
                </mxCell>
                <mxCell id="177" value="Atleta" style="text;strokeColor=none;align=center;fillColor=none;html=1;verticalAlign=middle;whiteSpace=wrap;rounded=0;labelBackgroundColor=#ffffff;fontSize=16;fontColor=#0e0101;" parent="1" vertex="1">
                    <mxGeometry x="320" y="170" width="60" height="30" as="geometry"/>
                </mxCell>
                <mxCell id="178" value="+ nome" style="text;strokeColor=none;align=center;fillColor=none;html=1;verticalAlign=middle;whiteSpace=wrap;rounded=0;labelBackgroundColor=#ffffff;fontSize=16;fontColor=#0e0101;" parent="1" vertex="1">
                    <mxGeometry x="250" y="200" width="95" height="30" as="geometry"/>
                </mxCell>
                <mxCell id="179" value="+ idade" style="text;strokeColor=none;align=center;fillColor=none;html=1;verticalAlign=middle;whiteSpace=wrap;rounded=0;labelBackgroundColor=#ffffff;fontSize=16;fontColor=#0e0101;" parent="1" vertex="1">
                    <mxGeometry x="260" y="230" width="70" height="30" as="geometry"/>
                </mxCell>
                <mxCell id="183" style="edgeStyle=none;html=1;fontSize=16;fontColor=#0e0101;shape=flexArrow;rounded=0;" parent="1" source="182" target="167" edge="1">
                    <mxGeometry relative="1" as="geometry"/>
                </mxCell>
                <mxCell id="182" value="+ posiçao" style="text;strokeColor=none;align=center;fillColor=none;html=1;verticalAlign=middle;whiteSpace=wrap;rounded=0;labelBackgroundColor=#ffffff;fontSize=16;fontColor=#0e0101;" parent="1" vertex="1">
                    <mxGeometry x="260" y="260" width="80" height="30" as="geometry"/>
                </mxCell>
                <mxCell id="184" value="" style="whiteSpace=wrap;html=1;aspect=fixed;labelBackgroundColor=#ffffff;fontSize=16;fillColor=#f5f5f5;fontColor=#333333;strokeColor=#666666;rounded=0;" parent="1" vertex="1">
                    <mxGeometry x="-77.5" y="565" width="200" height="200" as="geometry"/>
                </mxCell>
                <mxCell id="185" value="" style="rounded=0;whiteSpace=wrap;html=1;labelBackgroundColor=#ffffff;fontSize=16;fillColor=#f5f5f5;strokeColor=#666666;gradientColor=#b3b3b3;" parent="1" vertex="1">
                    <mxGeometry x="-77.5" y="565" width="200" height="30" as="geometry"/>
                </mxCell>
                <mxCell id="186" value="Produtos" style="text;strokeColor=none;align=center;fillColor=none;html=1;verticalAlign=middle;whiteSpace=wrap;rounded=0;labelBackgroundColor=#ffffff;fontSize=16;fontColor=#0e0101;" parent="1" vertex="1">
                    <mxGeometry x="-17.5" y="565" width="60" height="30" as="geometry"/>
                </mxCell>
                <mxCell id="209" value="" style="edgeStyle=none;html=1;fontSize=16;fontColor=#0e0101;rounded=0;" parent="1" source="193" target="207" edge="1">
                    <mxGeometry relative="1" as="geometry"/>
                </mxCell>
                <mxCell id="193" value="" style="rounded=0;whiteSpace=wrap;html=1;labelBackgroundColor=#ffffff;fontSize=16;fillColor=#f5f5f5;gradientColor=#b3b3b3;strokeColor=#666666;" parent="1" vertex="1">
                    <mxGeometry x="-77.5" y="595" width="200" height="120" as="geometry"/>
                </mxCell>
                <mxCell id="194" value="+ codigo:int" style="text;strokeColor=none;align=center;fillColor=none;html=1;verticalAlign=middle;whiteSpace=wrap;rounded=0;labelBackgroundColor=#ffffff;fontSize=16;fontColor=#0e0101;" parent="1" vertex="1">
                    <mxGeometry x="-77.5" y="595" width="90" height="30" as="geometry"/>
                </mxCell>
                <mxCell id="195" value="+ descProduto: String" style="text;strokeColor=none;align=center;fillColor=none;html=1;verticalAlign=middle;whiteSpace=wrap;rounded=0;labelBackgroundColor=#ffffff;fontSize=16;fontColor=#0e0101;" parent="1" vertex="1">
                    <mxGeometry x="-77.5" y="625" width="160" height="30" as="geometry"/>
                </mxCell>
                <mxCell id="196" value="+ preço: float" style="text;strokeColor=none;align=center;fillColor=none;html=1;verticalAlign=middle;whiteSpace=wrap;rounded=0;labelBackgroundColor=#ffffff;fontSize=16;fontColor=#0e0101;" parent="1" vertex="1">
                    <mxGeometry x="-77.5" y="655" width="100" height="30" as="geometry"/>
                </mxCell>
                <mxCell id="197" value="+ qualidade: int" style="text;strokeColor=none;align=center;fillColor=none;html=1;verticalAlign=middle;whiteSpace=wrap;rounded=0;labelBackgroundColor=#ffffff;fontSize=16;fontColor=#0e0101;" parent="1" vertex="1">
                    <mxGeometry x="-82.5" y="695" width="125" height="20" as="geometry"/>
                </mxCell>
                <mxCell id="198" value="+ ListaraDados(): void" style="text;strokeColor=none;align=center;fillColor=none;html=1;verticalAlign=middle;whiteSpace=wrap;rounded=0;labelBackgroundColor=#ffffff;fontSize=16;fontColor=#0e0101;" parent="1" vertex="1">
                    <mxGeometry x="-75.5" y="725" width="178" height="30" as="geometry"/>
                </mxCell>
                <mxCell id="199" value="" style="whiteSpace=wrap;html=1;aspect=fixed;labelBackgroundColor=#ffffff;fontSize=16;fillColor=#f5f5f5;fontColor=#333333;strokeColor=#666666;rounded=0;" parent="1" vertex="1">
                    <mxGeometry x="240" y="545" width="200" height="200" as="geometry"/>
                </mxCell>
                <mxCell id="200" value="" style="rounded=0;whiteSpace=wrap;html=1;labelBackgroundColor=#ffffff;fontSize=16;fillColor=#f5f5f5;strokeColor=#666666;gradientColor=#b3b3b3;" parent="1" vertex="1">
                    <mxGeometry x="240" y="545" width="200" height="30" as="geometry"/>
                </mxCell>
                <mxCell id="201" value="Carrinhos" style="text;strokeColor=none;align=center;fillColor=none;html=1;verticalAlign=middle;whiteSpace=wrap;rounded=0;labelBackgroundColor=#ffffff;fontSize=16;fontColor=#0e0101;" parent="1" vertex="1">
                    <mxGeometry x="310" y="545" width="60" height="30" as="geometry"/>
                </mxCell>
                <mxCell id="202" value="" style="rounded=0;whiteSpace=wrap;html=1;labelBackgroundColor=#ffffff;fontSize=16;fillColor=#f5f5f5;gradientColor=#b3b3b3;strokeColor=#666666;" parent="1" vertex="1">
                    <mxGeometry x="240" y="575" width="200" height="40" as="geometry"/>
                </mxCell>
                <mxCell id="203" value="+ itens[]: Produtos" style="text;strokeColor=none;align=center;fillColor=none;html=1;verticalAlign=middle;whiteSpace=wrap;rounded=0;labelBackgroundColor=#ffffff;fontSize=16;fontColor=#0e0101;" parent="1" vertex="1">
                    <mxGeometry x="240" y="585" width="135" height="30" as="geometry"/>
                </mxCell>
                <mxCell id="206" value="+ ExibeCaminho(): void" style="text;strokeColor=none;align=center;fillColor=none;html=1;verticalAlign=middle;whiteSpace=wrap;rounded=0;labelBackgroundColor=#ffffff;fontSize=16;fontColor=#0e0101;" parent="1" vertex="1">
                    <mxGeometry x="235" y="615" width="180" height="20" as="geometry"/>
                </mxCell>
                <mxCell id="207" value="+&amp;nbsp; FecharCompra(): float" style="text;strokeColor=none;align=center;fillColor=none;html=1;verticalAlign=middle;whiteSpace=wrap;rounded=0;labelBackgroundColor=#ffffff;fontSize=16;fontColor=#0e0101;" parent="1" vertex="1">
                    <mxGeometry x="235" y="635" width="190" height="30" as="geometry"/>
                </mxCell>
                <mxCell id="211" value="" style="whiteSpace=wrap;html=1;aspect=fixed;labelBackgroundColor=#ffffff;fontSize=16;fillColor=#f5f5f5;fontColor=#333333;strokeColor=#666666;rounded=0;" parent="1" vertex="1">
                    <mxGeometry x="-20" y="385" width="140" height="140" as="geometry"/>
                </mxCell>
                <mxCell id="212" value="" style="rounded=0;whiteSpace=wrap;html=1;labelBackgroundColor=#ffffff;fontSize=16;fillColor=#f5f5f5;strokeColor=#666666;gradientColor=#b3b3b3;" parent="1" vertex="1">
                    <mxGeometry x="-20" y="385" width="140" height="30" as="geometry"/>
                </mxCell>
                <mxCell id="213" value="Pedido" style="text;strokeColor=none;align=center;fillColor=none;html=1;verticalAlign=middle;whiteSpace=wrap;rounded=0;labelBackgroundColor=#ffffff;fontSize=16;fontColor=#0e0101;" parent="1" vertex="1">
                    <mxGeometry x="20" y="385" width="60" height="30" as="geometry"/>
                </mxCell>
                <mxCell id="214" value="+ id_pedido" style="text;strokeColor=none;align=center;fillColor=none;html=1;verticalAlign=middle;whiteSpace=wrap;rounded=0;labelBackgroundColor=#ffffff;fontSize=16;fontColor=#0e0101;" parent="1" vertex="1">
                    <mxGeometry x="-20" y="415" width="100" height="30" as="geometry"/>
                </mxCell>
                <mxCell id="215" value="+ data" style="text;strokeColor=none;align=center;fillColor=none;html=1;verticalAlign=middle;whiteSpace=wrap;rounded=0;labelBackgroundColor=#ffffff;fontSize=16;fontColor=#0e0101;" parent="1" vertex="1">
                    <mxGeometry x="-20" y="440" width="60" height="30" as="geometry"/>
                </mxCell>
                <mxCell id="216" value="" style="whiteSpace=wrap;html=1;aspect=fixed;labelBackgroundColor=#ffffff;fontSize=16;fillColor=#f5f5f5;fontColor=#333333;strokeColor=#666666;rounded=0;" parent="1" vertex="1">
                    <mxGeometry x="260" y="365" width="180" height="180" as="geometry"/>
                </mxCell>
                <mxCell id="217" value="" style="rounded=0;whiteSpace=wrap;html=1;labelBackgroundColor=#ffffff;fontSize=16;fillColor=#f5f5f5;strokeColor=#666666;gradientColor=#b3b3b3;" parent="1" vertex="1">
                    <mxGeometry x="260" y="350" width="180" height="30" as="geometry"/>
                </mxCell>
                <mxCell id="218" value="ItemPedido" style="text;strokeColor=none;align=center;fillColor=none;html=1;verticalAlign=middle;whiteSpace=wrap;rounded=0;labelBackgroundColor=#ffffff;fontSize=16;fontColor=#0e0101;" parent="1" vertex="1">
                    <mxGeometry x="310" y="350" width="80" height="30" as="geometry"/>
                </mxCell>
                <mxCell id="219" value="+ id_nome" style="text;strokeColor=none;align=center;fillColor=none;html=1;verticalAlign=middle;whiteSpace=wrap;rounded=0;labelBackgroundColor=#ffffff;fontSize=16;fontColor=#0e0101;" parent="1" vertex="1">
                    <mxGeometry x="260" y="380" width="85" height="30" as="geometry"/>
                </mxCell>
                <mxCell id="220" value="+ descriçao" style="text;strokeColor=none;align=center;fillColor=none;html=1;verticalAlign=middle;whiteSpace=wrap;rounded=0;labelBackgroundColor=#ffffff;fontSize=16;fontColor=#0e0101;" parent="1" vertex="1">
                    <mxGeometry x="260" y="410" width="90" height="30" as="geometry"/>
                </mxCell>
                <mxCell id="221" style="edgeStyle=none;html=1;fontSize=16;fontColor=#0e0101;shape=flexArrow;rounded=0;" parent="1" source="222" target="211" edge="1">
                    <mxGeometry relative="1" as="geometry">
                        <Array as="points"/>
                    </mxGeometry>
                </mxCell>
                <mxCell id="222" value="+ quantidade" style="text;strokeColor=none;align=center;fillColor=none;html=1;verticalAlign=middle;whiteSpace=wrap;rounded=0;labelBackgroundColor=#ffffff;fontSize=16;fontColor=#0e0101;" parent="1" vertex="1">
                    <mxGeometry x="260" y="440" width="100" height="30" as="geometry"/>
                </mxCell>
                <mxCell id="223" value="+ valorDesconto" style="text;strokeColor=none;align=center;fillColor=none;html=1;verticalAlign=middle;whiteSpace=wrap;rounded=0;labelBackgroundColor=#ffffff;fontSize=16;fontColor=#0e0101;" parent="1" vertex="1">
                    <mxGeometry x="-20" y="470" width="130" height="30" as="geometry"/>
                </mxCell>
                <mxCell id="224" value="+ valorUnitario" style="text;strokeColor=none;align=center;fillColor=none;html=1;verticalAlign=middle;whiteSpace=wrap;rounded=0;labelBackgroundColor=#ffffff;fontSize=16;fontColor=#0e0101;" parent="1" vertex="1">
                    <mxGeometry x="260" y="470" width="110" height="30" as="geometry"/>
                </mxCell>
                <mxCell id="225" value="" style="whiteSpace=wrap;html=1;aspect=fixed;" vertex="1" parent="1">
                    <mxGeometry x="810" y="1010" width="140" height="140" as="geometry"/>
                </mxCell>
                <mxCell id="226" value="" style="rounded=0;whiteSpace=wrap;html=1;" vertex="1" parent="1">
                    <mxGeometry x="810" y="1055" width="140" height="75" as="geometry"/>
                </mxCell>
                <mxCell id="234" value="" style="rounded=0;whiteSpace=wrap;html=1;" vertex="1" parent="1">
                    <mxGeometry x="555" y="1045" width="125" height="70" as="geometry"/>
                </mxCell>
                <mxCell id="235" value="" style="rounded=0;whiteSpace=wrap;html=1;" vertex="1" parent="1">
                    <mxGeometry x="555" y="1045" width="125" height="30" as="geometry"/>
                </mxCell>
                <mxCell id="236" value="" style="rounded=0;whiteSpace=wrap;html=1;" vertex="1" parent="1">
                    <mxGeometry x="555" y="1095" width="125" height="20" as="geometry"/>
                </mxCell>
                <mxCell id="237" value="Pessoa" style="text;strokeColor=none;align=center;fillColor=none;html=1;verticalAlign=middle;whiteSpace=wrap;rounded=0;" vertex="1" parent="1">
                    <mxGeometry x="587.5" y="1045" width="60" height="30" as="geometry"/>
                </mxCell>
                <mxCell id="238" value="+ nome: String" style="text;strokeColor=none;align=center;fillColor=none;html=1;verticalAlign=middle;whiteSpace=wrap;rounded=0;" vertex="1" parent="1">
                    <mxGeometry x="550" y="1075" width="90" height="30" as="geometry"/>
                </mxCell>
                <mxCell id="239" value="+ contatar(): boolean" style="text;strokeColor=none;align=center;fillColor=none;html=1;verticalAlign=middle;whiteSpace=wrap;rounded=0;" vertex="1" parent="1">
                    <mxGeometry x="555" y="1090" width="115" height="30" as="geometry"/>
                </mxCell>
                <mxCell id="240" value="Automovel" style="text;strokeColor=none;align=center;fillColor=none;html=1;verticalAlign=middle;whiteSpace=wrap;rounded=0;" vertex="1" parent="1">
                    <mxGeometry x="840" y="1020" width="75" height="30" as="geometry"/>
                </mxCell>
                <mxCell id="241" value="+ marca: String" style="text;strokeColor=none;align=center;fillColor=none;html=1;verticalAlign=middle;whiteSpace=wrap;rounded=0;" vertex="1" parent="1">
                    <mxGeometry x="810" y="1055" width="90" height="30" as="geometry"/>
                </mxCell>
                <mxCell id="242" value="+ modelo: String" style="text;strokeColor=none;align=center;fillColor=none;html=1;verticalAlign=middle;whiteSpace=wrap;rounded=0;" vertex="1" parent="1">
                    <mxGeometry x="810" y="1070" width="90" height="30" as="geometry"/>
                </mxCell>
                <mxCell id="243" value="+ cor: String" style="text;strokeColor=none;align=center;fillColor=none;html=1;verticalAlign=middle;whiteSpace=wrap;rounded=0;" vertex="1" parent="1">
                    <mxGeometry x="810" y="1082.5" width="70" height="30" as="geometry"/>
                </mxCell>
                <mxCell id="244" value="+ placa: String" style="text;strokeColor=none;align=center;fillColor=none;html=1;verticalAlign=middle;whiteSpace=wrap;rounded=0;" vertex="1" parent="1">
                    <mxGeometry x="810" y="1100" width="80" height="30" as="geometry"/>
                </mxCell>
                <mxCell id="245" value="" style="rounded=0;whiteSpace=wrap;html=1;" vertex="1" parent="1">
                    <mxGeometry x="735" y="1270" width="305" height="80" as="geometry"/>
                </mxCell>
                <mxCell id="246" value="" style="rounded=0;whiteSpace=wrap;html=1;" vertex="1" parent="1">
                    <mxGeometry x="735" y="1300" width="305" height="30" as="geometry"/>
                </mxCell>
                <mxCell id="247" value="Funcionario" style="text;strokeColor=none;align=center;fillColor=none;html=1;verticalAlign=middle;whiteSpace=wrap;rounded=0;" vertex="1" parent="1">
                    <mxGeometry x="857.5" y="1270" width="60" height="30" as="geometry"/>
                </mxCell>
                <mxCell id="248" value="+ matricula: int" style="text;strokeColor=none;align=center;fillColor=none;html=1;verticalAlign=middle;whiteSpace=wrap;rounded=0;" vertex="1" parent="1">
                    <mxGeometry x="735" y="1295" width="85" height="30" as="geometry"/>
                </mxCell>
                <mxCell id="249" value="+ palcaVeiculo:String" style="text;strokeColor=none;align=center;fillColor=none;html=1;verticalAlign=middle;whiteSpace=wrap;rounded=0;" vertex="1" parent="1">
                    <mxGeometry x="720" y="1310" width="150" height="30" as="geometry"/>
                </mxCell>
                <mxCell id="250" value="+verificarVeiculo(automovel:Automovel): boolean" style="text;strokeColor=none;align=center;fillColor=none;html=1;verticalAlign=middle;whiteSpace=wrap;rounded=0;" vertex="1" parent="1">
                    <mxGeometry x="720" y="1325" width="300" height="30" as="geometry"/>
                </mxCell>
                <mxCell id="251" value="" style="rounded=0;whiteSpace=wrap;html=1;" vertex="1" parent="1">
                    <mxGeometry x="467.5" y="1290" width="120" height="60" as="geometry"/>
                </mxCell>
                <mxCell id="252" value="" style="rounded=0;whiteSpace=wrap;html=1;" vertex="1" parent="1">
                    <mxGeometry x="467.5" y="1315" width="120" height="20" as="geometry"/>
                </mxCell>
                <mxCell id="253" value="+ parametro: int" style="text;strokeColor=none;align=center;fillColor=none;html=1;verticalAlign=middle;whiteSpace=wrap;rounded=0;" vertex="1" parent="1">
                    <mxGeometry x="460" y="1310" width="110" height="30" as="geometry"/>
                </mxCell>
                <mxCell id="254" value="Dependente" style="text;strokeColor=none;align=center;fillColor=none;html=1;verticalAlign=middle;whiteSpace=wrap;rounded=0;" vertex="1" parent="1">
                    <mxGeometry x="496.25" y="1290" width="61.25" height="30" as="geometry"/>
                </mxCell>
                <mxCell id="256" value="" style="endArrow=classic;html=1;entryX=1;entryY=1;entryDx=0;entryDy=0;" edge="1" parent="1" target="239">
                    <mxGeometry width="50" height="50" relative="1" as="geometry">
                        <mxPoint x="750" y="1270" as="sourcePoint"/>
                        <mxPoint x="710" y="1190" as="targetPoint"/>
                        <Array as="points">
                            <mxPoint x="730" y="1230"/>
                        </Array>
                    </mxGeometry>
                </mxCell>
                <mxCell id="257" value="" style="endArrow=classic;html=1;entryX=0.5;entryY=1;entryDx=0;entryDy=0;" edge="1" parent="1" target="239">
                    <mxGeometry width="50" height="50" relative="1" as="geometry">
                        <mxPoint x="505" y="1290" as="sourcePoint"/>
                        <mxPoint x="550" y="1210" as="targetPoint"/>
                    </mxGeometry>
                </mxCell>
                <mxCell id="260" value="" style="endArrow=classic;html=1;entryX=0.65;entryY=1.029;entryDx=0;entryDy=0;entryPerimeter=0;dashed=1;" edge="1" parent="1" target="225">
                    <mxGeometry width="50" height="50" relative="1" as="geometry">
                        <mxPoint x="790" y="1270" as="sourcePoint"/>
                        <mxPoint x="840" y="1220" as="targetPoint"/>
                    </mxGeometry>
                </mxCell>
                <mxCell id="261" value="" style="endArrow=classic;html=1;entryX=1;entryY=0;entryDx=0;entryDy=0;startArrow=none;exitX=1;exitY=0.667;exitDx=0;exitDy=0;exitPerimeter=0;" edge="1" parent="1" source="264" target="252">
                    <mxGeometry width="50" height="50" relative="1" as="geometry">
                        <mxPoint x="630" y="1311.851851851852" as="sourcePoint"/>
                        <mxPoint x="690" y="1300" as="targetPoint"/>
                        <Array as="points">
                            <mxPoint x="710" y="1315"/>
                        </Array>
                    </mxGeometry>
                </mxCell>
                <mxCell id="263" value="0...*" style="text;html=1;align=center;verticalAlign=middle;resizable=0;points=[];autosize=1;strokeColor=none;fillColor=none;" vertex="1" parent="1">
                    <mxGeometry x="587.5" y="1285" width="40" height="30" as="geometry"/>
                </mxCell>
                <mxCell id="264" value="1" style="text;html=1;align=center;verticalAlign=middle;resizable=0;points=[];autosize=1;strokeColor=none;fillColor=none;" vertex="1" parent="1">
                    <mxGeometry x="690" y="1290" width="30" height="30" as="geometry"/>
                </mxCell>
                <mxCell id="265" value="é" style="text;strokeColor=none;align=center;fillColor=none;html=1;verticalAlign=middle;whiteSpace=wrap;rounded=0;" vertex="1" parent="1">
                    <mxGeometry x="480" y="1190" width="60" height="30" as="geometry"/>
                </mxCell>
                <mxCell id="266" value="1" style="text;html=1;align=center;verticalAlign=middle;resizable=0;points=[];autosize=1;strokeColor=none;fillColor=none;" vertex="1" parent="1">
                    <mxGeometry x="517.5" y="1095" width="30" height="30" as="geometry"/>
                </mxCell>
                <mxCell id="267" value="1" style="text;strokeColor=none;align=center;fillColor=none;html=1;verticalAlign=middle;whiteSpace=wrap;rounded=0;" vertex="1" parent="1">
                    <mxGeometry x="435" y="1265" width="60" height="30" as="geometry"/>
                </mxCell>
                <mxCell id="270" value="1" style="text;html=1;align=center;verticalAlign=middle;resizable=0;points=[];autosize=1;strokeColor=none;fillColor=none;" vertex="1" parent="1">
                    <mxGeometry x="900" y="1160" width="30" height="30" as="geometry"/>
                </mxCell>
                <mxCell id="271" value="possui" style="text;html=1;align=center;verticalAlign=middle;resizable=0;points=[];autosize=1;strokeColor=none;fillColor=none;" vertex="1" parent="1">
                    <mxGeometry x="850" y="1205" width="60" height="30" as="geometry"/>
                </mxCell>
                <mxCell id="272" value="é" style="text;html=1;align=center;verticalAlign=middle;resizable=0;points=[];autosize=1;strokeColor=none;fillColor=none;" vertex="1" parent="1">
                    <mxGeometry x="720" y="1175" width="30" height="30" as="geometry"/>
                </mxCell>
                <mxCell id="273" value="1" style="text;html=1;align=center;verticalAlign=middle;resizable=0;points=[];autosize=1;strokeColor=none;fillColor=none;" vertex="1" parent="1">
                    <mxGeometry x="685" y="1115" width="30" height="30" as="geometry"/>
                </mxCell>
                <mxCell id="274" value="0" style="text;html=1;align=center;verticalAlign=middle;resizable=0;points=[];autosize=1;strokeColor=none;fillColor=none;" vertex="1" parent="1">
                    <mxGeometry x="745" y="1235" width="30" height="30" as="geometry"/>
                </mxCell>
                <mxCell id="275" value="1" style="text;html=1;align=center;verticalAlign=middle;resizable=0;points=[];autosize=1;strokeColor=none;fillColor=none;" vertex="1" parent="1">
                    <mxGeometry x="815" y="1245" width="30" height="30" as="geometry"/>
                </mxCell>
                <mxCell id="276" value="possui" style="text;html=1;align=center;verticalAlign=middle;resizable=0;points=[];autosize=1;strokeColor=none;fillColor=none;" vertex="1" parent="1">
                    <mxGeometry x="620" y="1285" width="60" height="30" as="geometry"/>
                </mxCell>
            </root>
        </mxGraphModel>
    </diagram>
</mxfile>